<svg width="40" height="40" viewBox="0 0 40 40" fill="none" xmlns="http://www.w3.org/2000/svg">
<path d="M3.2967 36.2329C3.2967 38.0472 4.77134 39.5296 6.59341 39.5296H32.9439C34.7582 39.5296 36.2406 38.0549 36.2406 36.2329V14.8236H3.2967V36.2329ZM28.0027 19.7648H31.2994V34.5884H28.0027V19.7648ZM18.1203 19.7648H21.417V34.5884H18.1203V19.7648ZM8.2379 19.7648H11.5346V34.5884H8.2379V19.7648ZM37.8851 6.58569H28.0027V3.2967C28.0027 1.47464 26.5203 0 24.706 0H14.8236C13.0092 0 11.5269 1.47464 11.5269 3.2967V6.59341H1.64449C0.733459 6.58569 0 7.32687 0 8.2379V9.88239C0 10.7934 0.733459 11.5269 1.64449 11.5269H37.8773C38.7884 11.5269 39.5218 10.7934 39.5218 9.88239V8.2379C39.5296 7.32687 38.7961 6.58569 37.8851 6.58569ZM24.706 6.58569H14.8236V3.2967H24.706V6.58569Z" fill="white"/>
</svg>
