<svg width="34" height="34" viewBox="0 0 34 34" fill="none" xmlns="http://www.w3.org/2000/svg">
<path d="M25.5 24.0855H8.5V25.5H25.5V24.0855ZM7.08555 1.41445H19.8355V8.5H26.9211V11.3355H28.3355V7.08555L21.25 0H5.66445V11.3355H7.07891V1.41445H7.08555ZM29.75 12.75H4.25C1.41445 12.75 0 14.1645 0 17V25.5H5.66445V34H28.3289V25.5H34V17C34 14.1645 32.5855 12.75 29.75 12.75ZM5.66445 18.4145H2.83555V15.5789H5.67109V18.4145H5.66445ZM26.9145 32.5855H7.08555V22.6645H26.9211V32.5855H26.9145ZM25.5 26.9145H8.5V28.3289H25.5V26.9145ZM25.5 29.75H8.5V31.1645H25.5V29.75Z" fill="black"/>
</svg>
