<svg width="35" height="35" viewBox="0 0 35 35" fill="none" xmlns="http://www.w3.org/2000/svg">
<path d="M17.5 0C7.83398 0 0 7.83398 0 17.5C0 27.166 7.83398 35 17.5 35C27.166 35 35 27.166 35 17.5C35 7.83398 27.166 0 17.5 0ZM27.7061 18.9561C27.7061 19.7627 27.0566 20.4121 26.25 20.4121H20.4189V26.25C20.4189 27.0566 19.7695 27.7061 18.9629 27.7061H16.0439C15.2373 27.7061 14.5879 27.0498 14.5879 26.25V20.4189H8.75C7.94336 20.4189 7.29395 19.7627 7.29395 18.9629V16.0439C7.29395 15.2373 7.94336 14.5879 8.75 14.5879H14.5811V8.75C14.5811 7.94336 15.2305 7.29395 16.0371 7.29395H18.9561C19.7627 7.29395 20.4121 7.9502 20.4121 8.75V14.5811H26.25C27.0566 14.5811 27.7061 15.2373 27.7061 16.0371V18.9561Z" fill="black"/>
</svg>
