<svg width="22" height="24" viewBox="0 0 22 24" fill="none" xmlns="http://www.w3.org/2000/svg">
<path d="M17.225 11.0151H4.97501C4.00851 11.0151 3.22501 11.897 3.22501 12.9848V19.8788C3.22501 20.9666 4.00851 21.8485 4.97501 21.8485H17.225C18.1915 21.8485 18.975 20.9666 18.975 19.8788V12.9848C18.975 11.897 18.1915 11.0151 17.225 11.0151Z" stroke="black" stroke-linecap="round" stroke-linejoin="round"/>
<path d="M6.72501 11.0151V7.07575C6.72501 5.76976 7.18594 4.51726 8.00641 3.59379C8.82689 2.67031 9.93968 2.15151 11.1 2.15151C12.2603 2.15151 13.3731 2.67031 14.1936 3.59379C15.0141 4.51726 15.475 5.76976 15.475 7.07575V11.0151" stroke="black" stroke-linecap="round" stroke-linejoin="round"/>
</svg>
