<svg width="41" height="39" viewBox="0 0 41 39" fill="none" xmlns="http://www.w3.org/2000/svg">
<path d="M24.7709 3.25H10.25C9.34388 3.25 8.47484 3.59241 7.83409 4.2019C7.19334 4.8114 6.83337 5.63805 6.83337 6.5V32.5C6.83337 33.362 7.19334 34.1886 7.83409 34.7981C8.47484 35.4076 9.34388 35.75 10.25 35.75H30.75C31.6562 35.75 32.5252 35.4076 33.166 34.7981C33.8067 34.1886 34.1667 33.362 34.1667 32.5V12.1875L24.7709 3.25Z" stroke="#FAA83A" stroke-width="2" stroke-linecap="round" stroke-linejoin="round"/>
<path d="M23.9167 3.25V13H34.1667M13.6667 21.125H17.0834M13.6667 27.625H17.0834M23.9167 21.125H27.3334M23.9167 27.625H27.3334" stroke="#FAA83A" stroke-width="2" stroke-linecap="round" stroke-linejoin="round"/>
</svg>
