<svg width="46" height="46" viewBox="0 0 46 46" fill="none" xmlns="http://www.w3.org/2000/svg">
<path d="M40.931 9.45516L23.681 3.70517C23.2393 3.55604 22.7608 3.55604 22.319 3.70517L5.06899 9.45516C4.65739 9.59149 4.29645 9.84873 4.03328 10.1933C3.77011 10.5379 3.61694 10.9538 3.59376 11.3868C3.59179 11.4245 3.59179 11.4623 3.59376 11.5V25.875C3.59376 26.4469 3.82094 26.9953 4.22531 27.3997C4.62969 27.8041 5.17814 28.0313 5.75001 28.0313C6.32188 28.0313 6.87033 27.8041 7.27471 27.3997C7.67908 26.9953 7.90626 26.4469 7.90626 25.875V14.4918L12.1666 15.9113C10.8444 18.4422 10.4515 21.3566 11.0563 24.1473C11.661 26.938 13.2252 29.4283 15.4765 31.1848C12.5304 32.6376 10.037 34.8675 8.26563 37.6338C8.10611 37.8708 7.99531 38.1373 7.93967 38.4176C7.88402 38.6979 7.88464 38.9864 7.9415 39.2665C7.99835 39.5465 8.11031 39.8125 8.27085 40.0489C8.43139 40.2853 8.63732 40.4874 8.87667 40.6435C9.11602 40.7996 9.38401 40.9066 9.66506 40.9582C9.94612 41.0098 10.2346 41.0051 10.5138 40.9442C10.793 40.8834 11.0574 40.7676 11.2914 40.6037C11.5255 40.4398 11.7247 40.231 11.8774 39.9895C14.4415 36.0435 18.5078 33.7813 23 33.7813C27.4922 33.7813 31.5585 36.0435 34.1317 39.9895C34.2843 40.231 34.4835 40.4398 34.7176 40.6037C34.9516 40.7676 35.216 40.8834 35.4952 40.9442C35.7744 41.0051 36.0629 41.0098 36.3439 40.9582C36.625 40.9066 36.893 40.7996 37.1323 40.6435C37.3717 40.4874 37.5776 40.2853 37.7382 40.0489C37.8987 39.8125 38.0107 39.5465 38.0675 39.2665C38.1244 38.9864 38.125 38.6979 38.0693 38.4176C38.0137 38.1373 37.9029 37.8708 37.7434 37.6338C35.9703 34.8643 33.4736 32.6323 30.5235 31.1794C32.7748 29.4229 34.339 26.9326 34.9437 24.1419C35.5485 21.3512 35.1556 18.4368 33.8334 15.9059L40.931 13.5395C41.3598 13.396 41.7327 13.1214 41.9968 12.7544C42.261 12.3875 42.4032 11.9468 42.4032 11.4946C42.4032 11.0425 42.261 10.6018 41.9968 10.2348C41.7327 9.86785 41.3598 9.59323 40.931 9.44977V9.45516ZM23 8.01766L33.4309 11.5L23 14.977L12.5781 11.5L23 8.01766ZM30.9063 21.5625C30.9065 22.7906 30.6206 24.0018 30.0714 25.1001C29.5221 26.1985 28.7246 27.1538 27.7419 27.8904C26.7593 28.6269 25.6186 29.1244 24.4102 29.3435C23.2019 29.5625 21.9591 29.497 20.7804 29.1523C19.6018 28.8075 18.5196 28.193 17.6198 27.3573C16.7199 26.5216 16.0271 25.4878 15.5963 24.3378C15.1655 23.1878 15.0084 21.9533 15.1377 20.732C15.2669 19.5108 15.6788 18.3365 16.3408 17.3021L22.319 19.2949C22.7608 19.4434 23.2392 19.4434 23.681 19.2949L29.6592 17.3021C30.4746 18.5734 30.9075 20.0522 30.9063 21.5625Z" fill="#FAA83A"/>
</svg>
